<svg width="14" height="14" viewBox="0 0 14 14" fill="none" xmlns="http://www.w3.org/2000/svg">
<path d="M5.99951 8H0.999512C0.716178 8 0.478678 7.90417 0.287012 7.7125C0.0953451 7.52083 -0.000488281 7.28333 -0.000488281 7C-0.000488281 6.71667 0.0953451 6.47917 0.287012 6.2875C0.478678 6.09583 0.716178 6 0.999512 6H5.99951V1C5.99951 0.716667 6.09535 0.479167 6.28701 0.2875C6.47868 0.0958333 6.71618 0 6.99951 0C7.28285 0 7.52035 0.0958333 7.71201 0.2875C7.90368 0.479167 7.99951 0.716667 7.99951 1V6H12.9995C13.2828 6 13.5203 6.09583 13.712 6.2875C13.9037 6.47917 13.9995 6.71667 13.9995 7C13.9995 7.28333 13.9037 7.52083 13.712 7.7125C13.5203 7.90417 13.2828 8 12.9995 8H7.99951V13C7.99951 13.2833 7.90368 13.5208 7.71201 13.7125C7.52035 13.9042 7.28285 14 6.99951 14C6.71618 14 6.47868 13.9042 6.28701 13.7125C6.09535 13.5208 5.99951 13.2833 5.99951 13V8Z" fill="#4589FF"/>
</svg>
