<svg width="24" height="22" viewBox="0 0 24 22" fill="none" xmlns="http://www.w3.org/2000/svg">
<path d="M18.4615 2.69232L18.4615 19.3077C18.461 19.7972 18.2664 20.2665 17.9203 20.6126C17.5742 20.9587 17.1049 21.1534 16.6154 21.1539L12.9231 21.1539C12.4336 21.1534 11.9643 20.9587 11.6182 20.6126C11.2721 20.2665 11.0774 19.7972 11.0769 19.3077L11.0769 2.69232C11.0774 2.20284 11.2721 1.73354 11.6182 1.38743C11.9643 1.04131 12.4336 0.846652 12.9231 0.846162L16.6154 0.846162C17.1049 0.846652 17.5742 1.04131 17.9203 1.38743C18.2664 1.73354 18.461 2.20284 18.4615 2.69232ZM12.9231 19.3077L16.6154 19.3077L16.6154 2.69232L12.9231 2.69232L12.9231 19.3077ZM12.9231 2.69232L12.9231 19.3077C12.9226 19.7972 12.7279 20.2665 12.3818 20.6126C12.0357 20.9587 11.5664 21.1533 11.0769 21.1538L7.38462 21.1538C6.89513 21.1533 6.42584 20.9587 6.07973 20.6126C5.73361 20.2665 5.53895 19.7972 5.53846 19.3077L5.53846 2.6923C5.53895 2.20282 5.73361 1.73353 6.07973 1.38741C6.42584 1.0413 6.89513 0.846634 7.38461 0.846145L11.0769 0.846145C11.5664 0.846633 12.0357 1.0413 12.3818 1.38741C12.7279 1.73353 12.9226 2.20284 12.9231 2.69232ZM7.38462 19.3077L11.0769 19.3077L11.0769 2.69232L7.38461 2.6923L7.38462 19.3077ZM7.38461 2.6923L7.38462 19.3077C7.38413 19.7972 7.18946 20.2665 6.84335 20.6126C6.49723 20.9587 6.02794 21.1533 5.53846 21.1538L1.84615 21.1538C1.35667 21.1533 0.887381 20.9587 0.541266 20.6126C0.195151 20.2665 0.000488688 19.7972 -8.07075e-08 19.3077L-8.06989e-07 2.6923C0.000487919 2.20282 0.19515 1.73353 0.541265 1.38741C0.88738 1.0413 1.35667 0.846634 1.84615 0.846146L5.53846 0.846145C6.02794 0.846634 6.49723 1.0413 6.84335 1.38741C7.18946 1.73353 7.38413 2.20282 7.38461 2.6923ZM1.84615 19.3077L5.53846 19.3077L5.53846 2.6923L1.84615 2.6923L1.84615 19.3077Z" fill="#42526E"/>
<path d="M24 2.69252L24 19.3079C23.9995 19.7974 23.8048 20.2667 23.4587 20.6128C23.1126 20.9589 22.6433 21.1536 22.1538 21.1541L18.4615 21.1541C17.9721 21.1536 17.5028 20.9589 17.1567 20.6128C16.8105 20.2667 16.6159 19.7972 16.6154 19.3077L16.6154 2.69232C16.6159 2.20284 16.8105 1.73375 17.1567 1.38763C17.5028 1.04152 17.9721 0.846858 18.4615 0.846368L22.1538 0.846368C22.6433 0.846858 23.1126 1.04152 23.4587 1.38763C23.8048 1.73375 23.9995 2.20304 24 2.69252ZM18.4615 19.3077L22.1538 19.3079L22.1538 2.69252L18.4615 2.69232L18.4615 19.3077Z" fill="#42526E"/>
</svg>
