<svg width="22" height="24" viewBox="0 0 22 24" fill="none" xmlns="http://www.w3.org/2000/svg">
<path d="M11.0002 19.2C9.8802 19.2 8.8102 19.375 7.7902 19.725C6.7702 20.075 5.8402 20.6 5.0002 21.3V21.6H17.0002V21.3C16.1602 20.6 15.2302 20.075 14.2102 19.725C13.1902 19.375 12.1202 19.2 11.0002 19.2ZM2.6002 20.22C3.6802 19.16 4.9352 18.325 6.3652 17.715C7.7952 17.105 9.3402 16.8 11.0002 16.8C12.6602 16.8 14.2052 17.105 15.6352 17.715C17.0652 18.325 18.3202 19.16 19.4002 20.22V4.8H2.6002V20.22ZM11.0002 14.4C9.8402 14.4 8.8502 13.99 8.0302 13.17C7.2102 12.35 6.8002 11.36 6.8002 10.2C6.8002 9.04 7.2102 8.05 8.0302 7.23C8.8502 6.41 9.8402 6 11.0002 6C12.1602 6 13.1502 6.41 13.9702 7.23C14.7902 8.05 15.2002 9.04 15.2002 10.2C15.2002 11.36 14.7902 12.35 13.9702 13.17C13.1502 13.99 12.1602 14.4 11.0002 14.4ZM11.0002 12C11.5002 12 11.9252 11.825 12.2752 11.475C12.6252 11.125 12.8002 10.7 12.8002 10.2C12.8002 9.7 12.6252 9.275 12.2752 8.925C11.9252 8.575 11.5002 8.4 11.0002 8.4C10.5002 8.4 10.0752 8.575 9.7252 8.925C9.3752 9.275 9.2002 9.7 9.2002 10.2C9.2002 10.7 9.3752 11.125 9.7252 11.475C10.0752 11.825 10.5002 12 11.0002 12ZM2.6002 24C1.9402 24 1.3752 23.765 0.905195 23.295C0.435195 22.825 0.200195 22.26 0.200195 21.6V4.8C0.200195 4.14 0.435195 3.575 0.905195 3.105C1.3752 2.635 1.9402 2.4 2.6002 2.4H3.8002V1.2C3.8002 0.537258 4.33745 0 5.0002 0C5.66294 0 6.2002 0.537258 6.2002 1.2V2.4H15.8002V1.2C15.8002 0.537258 16.3375 0 17.0002 0C17.6629 0 18.2002 0.537259 18.2002 1.2V2.4H19.4002C20.0602 2.4 20.6252 2.635 21.0952 3.105C21.5652 3.575 21.8002 4.14 21.8002 4.8V21.6C21.8002 22.26 21.5652 22.825 21.0952 23.295C20.6252 23.765 20.0602 24 19.4002 24H2.6002Z" fill="#42526E"/>
</svg>
