<svg width="16" height="12" viewBox="0 0 16 12" fill="none" xmlns="http://www.w3.org/2000/svg">
<path d="M5.54954 9.15L14.0245 0.675C14.2245 0.475 14.462 0.375 14.737 0.375C15.012 0.375 15.2495 0.475 15.4495 0.675C15.6495 0.875 15.7495 1.1125 15.7495 1.3875C15.7495 1.6625 15.6495 1.9 15.4495 2.1L6.24954 11.3C6.04954 11.5 5.8162 11.6 5.54954 11.6C5.28287 11.6 5.04954 11.5 4.84954 11.3L0.549536 7C0.349536 6.8 0.253702 6.5625 0.262036 6.2875C0.270369 6.0125 0.374536 5.775 0.574536 5.575C0.774536 5.375 1.01204 5.275 1.28704 5.275C1.56204 5.275 1.79954 5.375 1.99954 5.575L5.54954 9.15Z" fill="#4589FF"/>
</svg>
