<svg width="20" height="16" viewBox="0 0 20 16" fill="none" xmlns="http://www.w3.org/2000/svg">
<path d="M1.99951 16C1.44951 16 0.978678 15.8042 0.587012 15.4125C0.195345 15.0208 -0.000488281 14.55 -0.000488281 14V2C-0.000488281 1.45 0.195345 0.979167 0.587012 0.5875C0.978678 0.195833 1.44951 0 1.99951 0H17.9995C18.5495 0 19.0203 0.195833 19.412 0.5875C19.8037 0.979167 19.9995 1.45 19.9995 2V14C19.9995 14.55 19.8037 15.0208 19.412 15.4125C19.0203 15.8042 18.5495 16 17.9995 16H1.99951ZM17.9995 4L10.5245 8.675C10.4412 8.725 10.3537 8.7625 10.262 8.7875C10.1703 8.8125 10.0828 8.825 9.99951 8.825C9.91618 8.825 9.82868 8.8125 9.73701 8.7875C9.64535 8.7625 9.55785 8.725 9.47451 8.675L1.99951 4V14H17.9995V4ZM9.99951 7L17.9995 2H1.99951L9.99951 7ZM1.99951 4.25V2.775V2.8V2.7875V4.25Z" fill="#A8A8A8"/>
</svg>
