<svg width="24" height="24" viewBox="0 0 24 24" fill="none" xmlns="http://www.w3.org/2000/svg">
<mask id="mask0_18356_6234" style="mask-type:alpha" maskUnits="userSpaceOnUse" x="-1" y="0" width="25" height="24">
<rect x="-0.000488281" width="24" height="24" fill="#D9D9D9"/>
</mask>
<g mask="url(#mask0_18356_6234)">
<path d="M11.9995 12C10.8995 12 9.95785 11.6083 9.17451 10.825C8.39118 10.0417 7.99951 9.1 7.99951 8C7.99951 6.9 8.39118 5.95833 9.17451 5.175C9.95785 4.39167 10.8995 4 11.9995 4C13.0995 4 14.0412 4.39167 14.8245 5.175C15.6078 5.95833 15.9995 6.9 15.9995 8C15.9995 9.1 15.6078 10.0417 14.8245 10.825C14.0412 11.6083 13.0995 12 11.9995 12ZM17.9995 20H5.99951C5.44951 20 4.97868 19.8042 4.58701 19.4125C4.19535 19.0208 3.99951 18.55 3.99951 18V17.2C3.99951 16.6333 4.14535 16.1125 4.43701 15.6375C4.72868 15.1625 5.11618 14.8 5.59951 14.55C6.63284 14.0333 7.68285 13.6458 8.74951 13.3875C9.81618 13.1292 10.8995 13 11.9995 13C13.0995 13 14.1828 13.1292 15.2495 13.3875C16.3162 13.6458 17.3662 14.0333 18.3995 14.55C18.8828 14.8 19.2703 15.1625 19.562 15.6375C19.8537 16.1125 19.9995 16.6333 19.9995 17.2V18C19.9995 18.55 19.8037 19.0208 19.412 19.4125C19.0203 19.8042 18.5495 20 17.9995 20ZM5.99951 18H17.9995V17.2C17.9995 17.0167 17.9537 16.85 17.862 16.7C17.7703 16.55 17.6495 16.4333 17.4995 16.35C16.5995 15.9 15.6912 15.5625 14.7745 15.3375C13.8578 15.1125 12.9328 15 11.9995 15C11.0662 15 10.1412 15.1125 9.22451 15.3375C8.30785 15.5625 7.39951 15.9 6.49951 16.35C6.34951 16.4333 6.22868 16.55 6.13701 16.7C6.04535 16.85 5.99951 17.0167 5.99951 17.2V18ZM11.9995 10C12.5495 10 13.0203 9.80417 13.412 9.4125C13.8037 9.02083 13.9995 8.55 13.9995 8C13.9995 7.45 13.8037 6.97917 13.412 6.5875C13.0203 6.19583 12.5495 6 11.9995 6C11.4495 6 10.9787 6.19583 10.587 6.5875C10.1953 6.97917 9.99951 7.45 9.99951 8C9.99951 8.55 10.1953 9.02083 10.587 9.4125C10.9787 9.80417 11.4495 10 11.9995 10Z" fill="#A8A8A8"/>
</g>
</svg>
