<svg width="22" height="15" viewBox="0 0 22 15" fill="none" xmlns="http://www.w3.org/2000/svg">
<path d="M10.9993 12C12.2493 12 13.3118 11.5625 14.1868 10.6875C15.0618 9.8125 15.4993 8.75 15.4993 7.5C15.4993 6.25 15.0618 5.1875 14.1868 4.3125C13.3118 3.4375 12.2493 3 10.9993 3C9.74932 3 8.68682 3.4375 7.81182 4.3125C6.93682 5.1875 6.49932 6.25 6.49932 7.5C6.49932 8.75 6.93682 9.8125 7.81182 10.6875C8.68682 11.5625 9.74932 12 10.9993 12ZM10.9993 10.2C10.2493 10.2 9.61182 9.9375 9.08682 9.4125C8.56182 8.8875 8.29932 8.25 8.29932 7.5C8.29932 6.75 8.56182 6.1125 9.08682 5.5875C9.61182 5.0625 10.2493 4.8 10.9993 4.8C11.7493 4.8 12.3868 5.0625 12.9118 5.5875C13.4368 6.1125 13.6993 6.75 13.6993 7.5C13.6993 8.25 13.4368 8.8875 12.9118 9.4125C12.3868 9.9375 11.7493 10.2 10.9993 10.2ZM10.9993 15C8.68265 15 6.56598 14.3875 4.64932 13.1625C2.73265 11.9375 1.28265 10.2833 0.299316 8.2C0.249316 8.11667 0.215983 8.0125 0.199316 7.8875C0.18265 7.7625 0.174316 7.63333 0.174316 7.5C0.174316 7.36667 0.18265 7.2375 0.199316 7.1125C0.215983 6.9875 0.249316 6.88333 0.299316 6.8C1.28265 4.71667 2.73265 3.0625 4.64932 1.8375C6.56598 0.6125 8.68265 0 10.9993 0C13.316 0 15.4327 0.6125 17.3493 1.8375C19.266 3.0625 20.716 4.71667 21.6993 6.8C21.7493 6.88333 21.7826 6.9875 21.7993 7.1125C21.816 7.2375 21.8243 7.36667 21.8243 7.5C21.8243 7.63333 21.816 7.7625 21.7993 7.8875C21.7826 8.0125 21.7493 8.11667 21.6993 8.2C20.716 10.2833 19.266 11.9375 17.3493 13.1625C15.4327 14.3875 13.316 15 10.9993 15ZM10.9993 13C12.8826 13 14.6118 12.5042 16.1868 11.5125C17.7618 10.5208 18.966 9.18333 19.7993 7.5C18.966 5.81667 17.7618 4.47917 16.1868 3.4875C14.6118 2.49583 12.8826 2 10.9993 2C9.11598 2 7.38682 2.49583 5.81182 3.4875C4.23682 4.47917 3.03265 5.81667 2.19932 7.5C3.03265 9.18333 4.23682 10.5208 5.81182 11.5125C7.38682 12.5042 9.11598 13 10.9993 13Z" fill="#A8A8A8"/>
</svg>
